<svg width="32" height="32" viewBox="0 0 32 32" fill="none" xmlns="http://www.w3.org/2000/svg">
  <!-- Coffee Cup -->
  <path d="M8 8 L8 24 C8 26 10 28 12 28 L20 28 C22 28 24 26 24 24 L24 8 L8 8 Z" fill="#3F1F01"/>
  
  <!-- Cup Handle -->
  <path d="M24 12 C26 12 28 14 28 16 C28 18 26 20 24 20 L24 12 Z" fill="none" stroke="#3F1F01" stroke-width="2"/>
  
  <!-- Coffee Liquid -->
  <path d="M10 10 L22 10 C22 10 22 14 20 16 L12 16 C10 14 10 10 10 10 Z" fill="#8B4513"/>
  
  <!-- Heart-shaped Steam -->
  <path d="M14 6 C14 4 15 2 16 2 C17 2 18 4 18 6 C18 6 16 10 16 12 C16 10 14 6 14 6 Z" fill="#FF6B35" opacity="0.8"/>
  <path d="M18 6 C18 4 19 2 20 2 C21 2 22 4 22 6 C22 6 20 10 20 12 C20 10 18 6 18 6 Z" fill="#FF6B35" opacity="0.8"/>
  
  <!-- Saucer -->
  <ellipse cx="16" cy="26" rx="12" ry="2" fill="#F5F5DC"/>
</svg>
