<svg width="200" height="200" viewBox="0 0 200 200" fill="none" xmlns="http://www.w3.org/2000/svg">
  <!-- Coffee Cup -->
  <path d="M50 60 L50 140 C50 150 58 158 68 158 L132 158 C142 158 150 150 150 140 L150 60 L50 60 Z" fill="#3F1F01" stroke="#2C1810" stroke-width="2"/>
  
  <!-- Cup Handle -->
  <path d="M150 80 C160 80 170 90 170 100 C170 110 160 120 150 120 L150 80 Z" fill="none" stroke="#3F1F01" stroke-width="8"/>
  
  <!-- Coffee Liquid -->
  <path d="M55 65 L145 65 C145 65 145 75 140 80 L60 80 C55 75 55 65 55 65 Z" fill="#8B4513"/>
  
  <!-- Heart-shaped Steam -->
  <path d="M85 50 C85 45 90 40 95 40 C100 40 105 45 105 50 C105 50 100 60 95 65 C90 60 85 50 85 50 Z" fill="#FF6B35" opacity="0.8"/>
  <path d="M105 50 C105 45 110 40 115 40 C120 40 125 45 125 50 C125 50 120 60 115 65 C110 60 105 50 105 50 Z" fill="#FF6B35" opacity="0.8"/>
  
  <!-- Additional Steam Lines -->
  <path d="M70 45 Q75 35 80 45" stroke="#FF6B35" stroke-width="3" fill="none" opacity="0.6"/>
  <path d="M120 45 Q125 35 130 45" stroke="#FF6B35" stroke-width="3" fill="none" opacity="0.6"/>
  
  <!-- Coffee Beans -->
  <ellipse cx="60" cy="100" rx="8" ry="12" fill="#2C1810" transform="rotate(-20 60 100)"/>
  <ellipse cx="90" cy="105" rx="6" ry="10" fill="#2C1810" transform="rotate(15 90 105)"/>
  <ellipse cx="120" cy="100" rx="7" ry="11" fill="#2C1810" transform="rotate(-10 120 100)"/>
  
  <!-- Saucer -->
  <ellipse cx="100" cy="160" rx="60" ry="8" fill="#F5F5DC" stroke="#D2B48C" stroke-width="1"/>
</svg>
